<svg width="10" height="10" viewBox="0 0 10 10" fill="none" xmlns="http://www.w3.org/2000/svg">
<path d="M5.57231 9.89998C4.65659 9.89998 3.83479 9.69238 3.10691 9.27717C2.39076 8.84976 1.82724 8.2697 1.41634 7.53699C1.00544 6.79206 0.799988 5.94334 0.799988 4.99082C0.799988 4.02608 1.00544 3.17736 1.41634 2.44465C1.82724 1.71194 2.39076 1.13798 3.10691 0.72278C3.83479 0.307577 4.65659 0.0999756 5.57231 0.0999756C6.3589 0.0999756 7.06917 0.25873 7.70313 0.576238C8.3371 0.893745 8.83605 1.37001 9.19999 2.00502L8.26666 2.66446C7.94967 2.17599 7.55638 1.81574 7.08678 1.58371C6.61718 1.35169 6.10649 1.23568 5.55471 1.23568C4.89726 1.23568 4.30439 1.39443 3.77609 1.71194C3.24779 2.01723 2.83102 2.45075 2.52577 3.0125C2.22053 3.57424 2.06791 4.23368 2.06791 4.99082C2.06791 5.74795 2.22053 6.40739 2.52577 6.96914C2.83102 7.53088 3.24779 7.97051 3.77609 8.28801C4.30439 8.59331 4.89726 8.74596 5.55471 8.74596C6.10649 8.74596 6.61718 8.62995 7.08678 8.39792C7.55638 8.1659 7.94967 7.81175 8.26666 7.33549L9.19999 7.99493C8.83605 8.61773 8.3371 9.094 7.70313 9.42372C7.06917 9.74122 6.3589 9.89998 5.57231 9.89998Z" fill="white"/>
</svg>
