<svg width="32" height="32" viewBox="0 0 32 32" fill="none" xmlns="http://www.w3.org/2000/svg">
<path d="M6.66666 13.2308C6.66666 19.6999 12.326 25.0496 14.8309 27.1006L14.8319 27.1014C15.1911 27.3955 15.3707 27.5426 15.6385 27.618C15.8467 27.6766 16.1531 27.6766 16.3613 27.618C16.6293 27.5426 16.8094 27.3953 17.1693 27.1006C19.6742 25.0496 25.3333 19.6998 25.3333 13.2308C25.3333 10.7826 24.35 8.43473 22.5997 6.70363C20.8493 4.97252 18.4754 4 16 4C13.5247 4 11.1507 4.97251 9.40033 6.70361C7.64999 8.43472 6.66666 10.7826 6.66666 13.2308Z" stroke="#0F0F0F" stroke-width="2" stroke-linecap="round" stroke-linejoin="round"/>
</svg>
