<svg width="107" height="73" viewBox="0 0 107 73" fill="none" xmlns="http://www.w3.org/2000/svg">
<path d="M55.8718 72.9064L33.9191 72.5101C26.8112 72.3723 19.6858 72.648 12.7175 71.2183C2.11671 69.0826 1.36575 58.6102 0.579854 49.826C-0.502928 37.4762 -0.0837859 24.9026 1.95953 12.6562C3.11217 5.78377 7.65287 1.6844 14.6735 1.23656C38.3725 -0.382508 62.2288 -0.193042 85.8751 0.564824C88.3725 0.633718 90.8873 1.01265 93.3498 1.44326C105.505 3.5446 105.802 15.4121 106.588 25.4021C107.374 35.4954 107.042 45.6405 105.54 55.6652C104.335 63.967 102.03 70.9254 92.302 71.5974C80.1122 72.4757 68.2014 73.1821 55.9766 72.9581C55.9766 72.9064 55.9067 72.9064 55.8718 72.9064ZM42.9656 51.8931C52.1519 46.6911 61.1635 41.5756 70.2974 36.4083C61.0936 31.2066 52.0995 26.091 42.9656 20.9238V51.8931Z" fill="white"/>
</svg>
