<svg width="12" height="20" viewBox="0 0 12 20" fill="none" xmlns="http://www.w3.org/2000/svg">
<path fill-rule="evenodd" clip-rule="evenodd" d="M7.42109 0.0733413C6.88755 0.167299 6.52043 0.283252 6.08255 0.496132C4.76175 1.13825 3.90515 2.38408 3.65719 4.02348C3.63301 4.18342 3.60269 4.96036 3.58988 5.75004L3.56655 7.18578L2.23411 7.18594C0.983315 7.18605 0.894045 7.19074 0.777076 7.26204C0.693393 7.31306 0.638972 7.38671 0.611273 7.48652C0.585371 7.57982 0.569939 8.24221 0.569822 9.26739C0.569587 11.0191 0.576737 11.0892 0.769497 11.2242C0.849351 11.2801 1.02625 11.2879 2.21915 11.2879H3.5778L3.57823 15.3802C3.57847 17.631 3.58976 19.5396 3.60328 19.6216C3.618 19.7107 3.67407 19.8168 3.74259 19.8853L3.85729 20H5.70938H7.56146L7.68906 19.886L7.81665 19.772L7.82693 15.5299L7.8372 11.2879H9.44148H11.0458L11.1566 11.1771C11.2302 11.1034 11.2759 11.0083 11.2926 10.8938C11.3065 10.799 11.3124 9.99182 11.3058 9.1001C11.2948 7.62756 11.2874 7.46949 11.2248 7.37737C11.0974 7.18992 11.0579 7.18578 9.39706 7.18578H7.83619V6.07766C7.83619 4.9247 7.86182 4.6538 7.99519 4.39795C8.22566 3.95582 8.59676 3.86787 10.2399 3.86604C11.0073 3.86518 11.1529 3.85565 11.2305 3.8013C11.4217 3.66738 11.4304 3.58741 11.4302 1.96172C11.4301 1.01878 11.4144 0.390493 11.3887 0.298059C11.361 0.198241 11.3066 0.124598 11.2229 0.0735757C11.1045 0.00137854 11.0169 -0.00225476 9.4575 0.000675325C8.06684 0.0032538 7.75633 0.01431 7.42109 0.0733413Z" fill="white"/>
</svg>
