<svg width="22" height="20" viewBox="0 0 22 20" fill="none" xmlns="http://www.w3.org/2000/svg">
<path fill-rule="evenodd" clip-rule="evenodd" d="M5.74637 0.0387081C4.63346 0.232331 3.74953 0.632583 2.95097 1.3045C1.95372 2.1436 1.27454 3.35193 1.05814 4.67214C0.974556 5.18203 0.974556 14.8089 1.05814 15.3188C1.23294 16.3852 1.67534 17.3216 2.3839 18.1249C3.24326 19.0992 4.37965 19.7247 5.67669 19.9373C6.18659 20.0209 15.8134 20.0209 16.3233 19.9373C17.3898 19.7625 18.3262 19.3201 19.1295 18.6116C20.1038 17.7522 20.7293 16.6158 20.9419 15.3188C21.0255 14.8089 21.0255 5.18203 20.9419 4.67214C20.7293 3.3751 20.1038 2.23871 19.1295 1.37934C18.4925 0.817456 17.7568 0.415759 16.9503 0.189481C16.2573 -0.00496145 16.323 -0.0029303 10.9609 0.0010148C8.20035 0.00304594 5.85379 0.0199982 5.74637 0.0387081ZM16.488 1.92205C17.4046 2.2082 18.0924 2.71302 18.5943 3.46782C18.8156 3.80078 18.932 4.0533 19.0736 4.50746L19.1832 4.859V9.99545V15.1319L19.0749 15.4834C18.7964 16.3871 18.2808 17.089 17.5276 17.5897C17.1947 17.8111 16.9422 17.9275 16.488 18.069L16.1365 18.1786H11H5.86356L5.51201 18.069C5.05786 17.9275 4.80533 17.8111 4.47238 17.5897C3.71918 17.089 3.20358 16.3871 2.92516 15.4834L2.81684 15.1319V9.99545V4.859L2.92641 4.50746C3.06827 4.05232 3.18444 3.80078 3.40783 3.4647C3.98026 2.60365 4.89478 2.00517 5.89844 1.83475C6.00816 1.81611 8.35659 1.80346 11.1172 1.80658L16.1365 1.81229L16.488 1.92205ZM16.1245 3.35779C15.7282 3.43583 15.3602 3.72508 15.1837 4.09732C15.0987 4.27645 15.0818 4.36731 15.0818 4.64417C15.0818 4.93474 15.0963 5.0047 15.1976 5.20469C15.7554 6.30549 17.3525 6.11718 17.6405 4.91662C17.7397 4.50316 17.6219 4.0851 17.3131 3.75504C17.1098 3.53759 16.8792 3.41084 16.5859 3.35521C16.356 3.31162 16.359 3.31162 16.1245 3.35779ZM10.1687 4.90017C8.28085 5.21812 6.69683 6.58243 6.09991 8.40463C5.21711 11.0997 6.69988 14.008 9.40919 14.8955C12.1042 15.7783 15.0126 14.2956 15.9001 11.5863C16.7851 8.88473 15.3007 5.98304 12.5774 5.09098C12.3565 5.0186 12.008 4.9324 11.8031 4.89943C11.3601 4.82814 10.5944 4.8285 10.1687 4.90017ZM11.6559 6.69765C12.3388 6.83687 12.9388 7.1699 13.4264 7.68038C14.0394 8.3219 14.3592 9.11573 14.3592 9.99545C14.3592 10.9229 13.9928 11.7744 13.3151 12.4219C12.6735 13.0348 11.8797 13.3546 11 13.3546C10.0707 13.3546 9.22119 12.9884 8.57037 12.3072C7.95872 11.667 7.64081 10.8764 7.64081 9.99545C7.64081 9.11452 7.95872 8.3239 8.57037 7.6837C9.22096 7.00276 10.0387 6.64723 10.9723 6.63945C11.1827 6.6377 11.4903 6.66387 11.6559 6.69765Z" fill="white"/>
</svg>
