<svg width="36" height="25" viewBox="0 0 36 25" fill="none" xmlns="http://www.w3.org/2000/svg">
<path d="M18.6129 24.491L11.4229 24.3579C9.09483 24.3116 6.76108 24.4042 4.47879 23.924C1.00675 23.2065 0.760795 19.6886 0.503394 16.7378C0.148755 12.5892 0.286034 8.36539 0.955274 4.25152C1.33279 1.94291 2.81999 0.565829 5.11943 0.415392C12.8815 -0.128494 20.695 -0.0648475 28.4398 0.189738C29.2578 0.212881 30.0815 0.340174 30.888 0.484825C34.8692 1.19072 34.9664 5.17728 35.2238 8.53318C35.4811 11.9238 35.3726 15.3317 34.8806 18.6993C34.4859 21.4881 33.7309 23.8255 30.5448 24.0513C26.5523 24.3463 22.6512 24.5837 18.6473 24.5084C18.6473 24.491 18.6244 24.491 18.6129 24.491ZM14.3858 17.4321C17.3946 15.6847 20.3461 13.9662 23.3377 12.2304C20.3232 10.4831 17.3774 8.76461 14.3858 7.0288V17.4321Z" fill="white"/>
</svg>
