<svg width="24" height="20" viewBox="0 0 24 20" fill="none" xmlns="http://www.w3.org/2000/svg">
<path d="M21.1454 5.23001C21.1594 5.43615 21.1594 5.64228 21.1594 5.85032C21.1594 12.1893 16.4127 19.5 7.73311 19.5V19.4962C5.16915 19.5 2.65844 18.7534 0.5 17.3456C0.872821 17.3912 1.24751 17.414 1.62314 17.4149C3.74794 17.4168 5.812 16.692 7.48363 15.3574C5.46441 15.3183 3.69374 13.98 3.07517 12.0259C3.78251 12.1646 4.51134 12.1361 5.20559 11.9433C3.00416 11.4911 1.42037 9.5247 1.42037 7.24104C1.42037 7.22014 1.42037 7.20019 1.42037 7.18025C2.07632 7.55168 2.81074 7.7578 3.56199 7.7806C1.48858 6.37184 0.849461 3.56762 2.10155 1.37515C4.49732 4.37222 8.03211 6.1942 11.8267 6.38705C11.4464 4.72085 11.9659 2.97486 13.1918 1.80357C15.0924 -0.0127184 18.0815 0.0803752 19.868 2.01161C20.9248 1.79977 21.9377 1.40554 22.8646 0.846979C22.5124 1.95747 21.7751 2.90076 20.7902 3.50017C21.7256 3.38807 22.6395 3.13349 23.5 2.74496C22.8665 3.71011 22.0685 4.5508 21.1454 5.23001Z" fill="white"/>
</svg>
