<svg width="26" height="18" viewBox="0 0 26 18" fill="none" xmlns="http://www.w3.org/2000/svg">
<path d="M13.5542 17.4782L8.42502 17.3859C6.76429 17.3538 5.09948 17.418 3.47138 17.0851C0.994559 16.5877 0.8191 14.1489 0.63548 12.1033C0.382493 9.22734 0.480424 6.29923 0.957834 3.44733C1.22714 1.8469 2.28805 0.892256 3.92839 0.787967C9.46553 0.410923 15.0394 0.455045 20.5643 0.631534C21.1478 0.647578 21.7354 0.735823 22.3107 0.836101C25.1507 1.32546 25.2201 4.08911 25.4037 6.41556C25.5873 8.76606 25.5098 11.1286 25.1589 13.4631C24.8774 15.3964 24.3388 17.0169 22.0659 17.1734C19.2178 17.3779 16.4349 17.5424 13.5786 17.4902C13.5786 17.4782 13.5623 17.4782 13.5542 17.4782ZM10.5387 12.5847C12.685 11.3733 14.7905 10.182 16.9246 8.97865C14.7742 7.76729 12.6728 6.57599 10.5387 5.37266V12.5847Z" fill="white"/>
</svg>
